<svg xmlns="http://www.w3.org/2000/svg" id="Calque_6" data-name="Calque 6" width="400.36" height="300" viewBox="0 0 400.36 300"><defs><style>      .cls-1 {        fill: #227c9e;      }      .cls-2 {        fill: #f59c44;      }      .cls-3 {        fill: #0b2637;      }    </style></defs><path class="cls-1" d="M136,40.74c-1.15,9.45-2.65,18.66-4.5,27.91a212.15,212.15,0,0,1-7.25,27.49,77.37,77.37,0,0,1-6,13.37c-1.34,2.23-2.74,4.1-4.15,6s-2.87,3.75-4.34,5.59c-5.85,7.33-11.93,14.4-18.07,21.4q-18.47,21-37.93,41Q44,193.55,34,203.24c-3.37,3.22-6.74,6.42-10.19,9.55a113.21,113.21,0,0,1-10.71,8.94c3.19-3.4,6.54-6.6,9.84-9.86s6.53-6.59,9.74-9.94q9.6-10.08,18.85-20.47,18.51-20.78,36-42.41c5.81-7.22,11.54-14.5,17-21.92q2-2.79,4-5.6c1.25-1.87,2.54-3.79,3.51-5.59a70.39,70.39,0,0,0,4.85-12.25,204.2,204.2,0,0,0,5.9-26.63c1.44-9,2.58-18.23,3.32-27.25l.41-5,10.15,1Z"></path><path class="cls-2" d="M207.45,161.89c-4.35-1.51-8.52-3.1-12.73-4.83s-8.33-3.59-12.44-5.73a63.4,63.4,0,0,1-6.1-3.62c-.5-.37-1-.76-1.5-1.15-.25-.2-.5-.36-.75-.59l-.75-.72a21.58,21.58,0,0,1-2.48-2.93c-2.67-3.78-5-7.55-7.33-11.35-4.65-7.6-9.16-15.25-13.63-22.93s-8.91-15.35-13.54-22.92l-.13-.22.43-.28.15.22c4.84,7.43,9.92,14.71,15.08,21.92s10.35,14.41,15.65,21.49c2.66,3.49,5.33,7.08,8.1,10.3a15.06,15.06,0,0,0,4.31,3.5,57.16,57.16,0,0,0,5.62,2.65c3.92,1.61,8.05,3,12.21,4.21s8.42,2.38,12.57,3.36l4.88,1.15-2.88,10.11Z"></path><g><path class="cls-3" d="M88.32,223.22v-32q3.74-.36,7.25-.36a12.08,12.08,0,0,1,7.58,2.2c1.9,1.47,2.86,3.69,2.86,6.64a8.68,8.68,0,0,1-3.9,7.29,15.22,15.22,0,0,1-9.29,2.86h-.49v-1.49h.31a13,13,0,0,0,7.74-2.34,7.17,7.17,0,0,0,3.29-6.09c0-2.51-.77-4.32-2.3-5.45a10.2,10.2,0,0,0-6.16-1.69c-1.35,0-2.93.06-4.73.18v30.24Z"></path><path class="cls-3" d="M113.93,223.22V194h13.63v1.8H116v10.62h10.44v1.75H116v13.14h12v1.89Z"></path><path class="cls-3" d="M136.29,223.22V194.15q3.87-.32,6.57-.31A10.65,10.65,0,0,1,149.7,196a7.3,7.3,0,0,1,2.7,6.09,8.56,8.56,0,0,1-1.53,4.91,14.38,14.38,0,0,1-3.46,3.64q5.35,7.11,6.61,8.51a9.25,9.25,0,0,0,5.58,3l0,1.4a10.61,10.61,0,0,1-4.1-.75,9.8,9.8,0,0,1-3.13-2.36q-1.54-1.67-6.81-9-3.65,0-7.16-.23v12Zm8.1-13.45q1.76,0,3.78-2.34a8.08,8.08,0,0,0,2-5.45,5.58,5.58,0,0,0-2.12-4.72,8.78,8.78,0,0,0-5.49-1.62q-1.8,0-4.23.18v13.72Q141.6,209.77,144.39,209.77Z"></path><path class="cls-3" d="M163.61,194.15q3.18-.27,6.56-.27A10.15,10.15,0,0,1,176,195.5a5.36,5.36,0,0,1,2.41,4.73,8,8,0,0,1-1.26,4.32,9,9,0,0,1-3.07,3,10.07,10.07,0,0,1,4.87,3.06,7.42,7.42,0,0,1,1.93,5,7.09,7.09,0,0,1-2.45,5.85,10.75,10.75,0,0,1-6.91,2c-3,0-5.6-.11-7.87-.32Zm12.73,6a3.81,3.81,0,0,0-1.84-3.39,8,8,0,0,0-4.42-1.2c-1.7,0-3.18,0-4.41.14v11c2.62,0,4.7.08,6.26.23a9.26,9.26,0,0,0,3.08-2.77A6.65,6.65,0,0,0,176.34,200.18Zm-8.64,8.28-2,0v12.91q1.94.18,6.26.18a7.15,7.15,0,0,0,4.84-1.64,5.22,5.22,0,0,0,1.91-4.14,5.92,5.92,0,0,0-1.91-4.36,10.66,10.66,0,0,0-5-2.64A18.91,18.91,0,0,0,167.7,208.46Z"></path><path class="cls-3" d="M189.39,223.22V194H203v1.8H191.46v10.62H201.9v1.75H191.46v13.14h12v1.89Z"></path><path class="cls-3" d="M217,195.86h-9.9V194H228.9v1.84H219v27.36h-2Z"></path><path class="cls-3" d="M250.82,213.3l-4.12,9.92h-2l12-28.8h1.12l12.08,28.8h-2.16l-4.12-9.92Zm6.32-15.68a2.09,2.09,0,0,0-.16.48c-.38,1.15-.73,2.12-1.08,2.92l-4.4,10.64h11.44l-4.4-10.6A18.38,18.38,0,0,1,257.14,197.62Z"></path><path class="cls-3" d="M281.58,217.78l8.68-20.52h1.92L281,223.38h-1.08l-11.16-26.12h2l9.8,23.08C280.71,219.94,281,219.09,281.58,217.78Z"></path><path class="cls-3" d="M308.06,223.62a12.43,12.43,0,0,1-9.32-3.88,13.88,13.88,0,0,1,0-19,13.13,13.13,0,0,1,18.64,0,13.88,13.88,0,0,1,0,19A12.46,12.46,0,0,1,308.06,223.62Zm0-25.12a10.5,10.5,0,0,0-8,3.4,12.5,12.5,0,0,0,0,16.66,11.13,11.13,0,0,0,16,0,12.56,12.56,0,0,0,0-16.66A10.46,10.46,0,0,0,308.08,198.5Z"></path><path class="cls-3" d="M349.34,221.94q-3,1.68-8.34,1.68a13.26,13.26,0,0,1-9.4-3.84,12.59,12.59,0,0,1-4.06-9.54,13.54,13.54,0,0,1,3.54-9.54,11.86,11.86,0,0,1,9.14-3.84,28.62,28.62,0,0,1,8.84,1.4l-.48,1.52a29.22,29.22,0,0,0-8.6-1.28,9.62,9.62,0,0,0-7.46,3.38,12,12,0,0,0-3,8.28,11.85,11.85,0,0,0,11.6,11.78,19.69,19.69,0,0,0,7.64-1.28Z"></path><path class="cls-3" d="M357.18,214.22l-3.72,9h-1.88l10.88-26.12h1.08l11,26.12h-2l-3.76-9Zm5.72-14.16q-.6,1.8-1.08,3l-4,9.6h10.24l-4-9.56C363.48,201.61,363.08,200.6,362.9,200.06Z"></path><path class="cls-3" d="M381.94,198.9h-8.8v-1.64h19.4v1.64h-8.8v24.32h-1.8Z"></path></g></svg>