<svg id="Calque_3" data-name="Calque 3" xmlns="http://www.w3.org/2000/svg" width="300" height="300" viewBox="0 0 300 300">
  <defs>
    <style>
      .cls-1 {
        fill: #fff;
      }

      .cls-2 {
        fill: #f59c44;
      }
    </style>
  </defs>
  <path class="cls-1" d="M177.55,40c-1.44,11.88-3.34,23.44-5.67,35.08a262.71,262.71,0,0,1-9.11,34.56,95.77,95.77,0,0,1-7.54,16.79A83,83,0,0,1,150,134c-1.78,2.39-3.59,4.72-5.44,7-7.35,9.23-15,18.1-22.72,26.91q-23.22,26.4-47.67,51.54-12.26,12.62-24.83,24.81c-4.22,4-8.46,8.07-12.8,12a141.93,141.93,0,0,1-13.46,11.25c4-4.28,8.22-8.3,12.37-12.4s8.19-8.29,12.24-12.49q12.06-12.67,23.69-25.74,23.21-26.13,45.2-53.3c7.3-9.07,14.51-18.22,21.37-27.56q2.5-3.48,5-7c1.56-2.34,3.19-4.76,4.41-7a89,89,0,0,0,6-15.42,257,257,0,0,0,7.41-33.47c1.81-11.31,3.23-22.9,4.16-34.25l.52-6.29,12.77,1.26Z"/>
  <path class="cls-2" d="M267.34,192.28c-5.48-1.9-10.71-3.9-16-6.09s-10.47-4.5-15.63-7.2a73,73,0,0,1-7.67-4.55c-.63-.45-1.26-1-1.89-1.43-.31-.25-.62-.47-.94-.76l-.94-.9a27.27,27.27,0,0,1-3.12-3.67c-3.37-4.75-6.28-9.49-9.21-14.27-5.86-9.55-11.51-19.18-17.13-28.82s-11.21-19.29-17-28.81l-.16-.28.54-.34.17.27c6.09,9.33,12.47,18.48,19,27.55s13,18.1,19.68,27c3.34,4.4,6.7,8.91,10.18,13a18.77,18.77,0,0,0,5.42,4.4,67.55,67.55,0,0,0,7.06,3.29,146.72,146.72,0,0,0,15.35,5.3c5.29,1.54,10.58,3,15.8,4.23l6.12,1.44-3.62,12.71Z"/>
</svg>
